{"title":"Once.Fallen.2010.720p.BRRip.H264.Feel-Free","uid":5961273,"size":1518832416,"categoryP":"video","categoryS":"hd___movies","magnet":"?xt=urn:btih:1aac52a7b264cffbe33b3970821020ab6bd0cb1f&amp;dn=Once.Fallen.2010.720p.BRRip.H264.Feel-Free&amp;tr=udp%3A%2F%2Ftracker.openbittorrent.com%3A80&amp;tr=udp%3A%2F%2Fopen.demonii.com%3A1337&amp;tr=udp%3A%2F%2Ftracker.coppersurfer.tk%3A6969&amp;tr=udp%3A%2F%2Fexodus.desync.com%3A6969","seeders":0,"leechers":1,"uploader":"deffjam555","files":8,"time":1289961259,"description":"\nGenre:Crime\nLanguage:English\nIMDb:http://www.imdb.com/title/tt1087524/\nSource:720p.BluRay.x264-CiNEFiLE\n\n\nGeneral\nComplete name :Once.Fallen.2010.720p.BRRip.H264.Feel-Free\nFormat : MPEG-4\nFormat profile : Base Media\nCodec ID : mp42\nFile size : 1.41 GiB\nDuration : 1h 32mn\nOverall bit rate : 2 177 Kbps\nVideo #1\nCodec ID : avc1\nCodec ID/Info : Advanced Video Coding\nDuration : 1h 32mn\nBit rate mode : Variable\nBit rate : 1 601 Kbps\nWidth : 1 280 pixels\nHeight : 720 pixels\nDisplay aspect ratio : 16:9\nFrame rate mode : Constant\nFrame rate : 23.976 fps\nResolution : 24 bits\nColorimetry : 4:2:0\nScan type : Progressive\nBits/(Pixel*Frame) : 0.072\nStream size : 1.04 GiB (74%)\nAudio #2\nID : 2\nFormat : AAC\nFormat/Info : Advanced Audio Codec\nFormat version : Version 4\nFormat profile : LC\nFormat settings, SBR : No\nCodec ID : 40\nDuration : 1h 32mn\nBit rate mode : Constant\nBit rate : 576 Kbps\nChannel(s) : 6 channels\nChannel positions : Front: L C R, Rear: L R, LFE\nSampling rate : 48.0 KHz\nResolution : 16 bits\nStream size : 380 MiB (26%)\n\nPlot:\nThe hardest part about moving on is saying goodbye.\n\n\nscreens\n &lt;a href=&quot;\nhttp://rapidhdd.com/images/635093vlcsnap-2010-11-17-03h22m37s187.png&quot; rel=&quot;nofollow&quot; target=&quot;_NEW&quot;&gt;\nhttp://rapidhdd.com/images/635093vlcsnap-2010-11-17-03h22m37s187.png&lt;/a&gt;\n &lt;a href=&quot;\nhttp://www.rapidhdd.com/images/126255vlcsnap-2010-11-17-03h22m46s21.png&quot; rel=&quot;nofollow&quot; target=&quot;_NEW&quot;&gt;\nhttp://www.rapidhdd.com/images/126255vlcsnap-2010-11-17-03h22m46s21.png&lt;/a&gt; &lt;a href=&quot;\nhttp://www.rapidhdd.com/images/306303vlcsnap-2010-11-17-03h23m11s25.png&quot; rel=&quot;nofollow&quot; target=&quot;_NEW&quot;&gt;\nhttp://www.rapidhdd.com/images/306303vlcsnap-2010-11-17-03h23m11s25.png&lt;/a&gt; &lt;a href=&quot;\nhttp://www.rapidhdd.com/images/99897vlcsnap-2010-11-17-03h24m15s160.png&quot; rel=&quot;nofollow&quot; target=&quot;_NEW&quot;&gt;\nhttp://www.rapidhdd.com/images/99897vlcsnap-2010-11-17-03h24m15s160.png&lt;/a&gt; &lt;a href=&quot;\nhttp://www.rapidhdd.com/images/42680vlcsnap-2010-11-17-03h23m21s119.png&quot; rel=&quot;nofollow&quot; target=&quot;_NEW&quot;&gt;\nhttp://www.rapidhdd.com/images/42680vlcsnap-2010-11-17-03h23m21s119.png&lt;/a&gt;","torrent":{"xt":"urn:btih:1aac52a7b264cffbe33b3970821020ab6bd0cb1f","amp;dn":"Once.Fallen.2010.720p.BRRip.H264.Feel-Free","amp;tr":["udp%3A%2F%2Ftracker.openbittorrent.com%3A80","udp%3A%2F%2Fopen.demonii.com%3A1337","udp%3A%2F%2Ftracker.coppersurfer.tk%3A6969","udp%3A%2F%2Fexodus.desync.com%3A6969"],"infoHash":"1aac52a7b264cffbe33b3970821020ab6bd0cb1f","infoHashBuffer":{"type":"Buffer","data":[26,172,82,167,178,100,207,251,227,59,57,112,130,16,32,171,107,208,203,31]},"announce":[],"urlList":[]}}